<?xml version="1.0" encoding="UTF-8" standalone="no"?>
<!DOCTYPE svg PUBLIC "-//W3C//DTD SVG 1.1//EN" "http://www.w3.org/Graphics/SVG/1.1/DTD/svg11.dtd">
<svg width="706px" height="500px" version="1.1" xmlns="http://www.w3.org/2000/svg" xmlns:xlink="http://www.w3.org/1999/xlink" xml:space="preserve" xmlns:serif="http://www.serif.com/" style="fill-rule:evenodd;clip-rule:evenodd;stroke-linejoin:round;stroke-miterlimit:2;">
    <path d="M45.167,20.98L678.938,20.98L676.626,468.991L264.892,370.172L45.167,440.499L45.167,20.98Z" style="fill:#403c6e;"/>
    <path d="M56.093,33.589L665.489,33.589L666.038,465.3L264.892,370.172L56.093,440.499L56.093,33.589Z" style="fill:#ffdb6b;"/>
    <g id="_410915951696">
        <path d="M169.569,67.245C189.511,67.245 205.676,83.412 205.676,103.353C205.676,123.295 189.511,139.461 169.569,139.461C149.627,139.461 133.462,123.295 133.462,103.353C133.462,83.412 149.627,67.245 169.569,67.245Z" style="fill:#fefefe;"/>
        <path d="M169.569,65.554C180.006,65.554 189.458,69.785 196.297,76.625C203.137,83.465 207.368,92.917 207.368,103.353C207.368,113.791 203.137,123.241 196.297,130.081C189.458,136.922 180.006,141.153 169.569,141.153C159.132,141.153 149.68,136.922 142.84,130.081C136.001,123.241 131.77,113.791 131.77,103.353C131.77,92.917 136.001,83.465 142.84,76.625C149.68,69.785 159.132,65.554 169.569,65.554ZM193.905,79.018C187.677,72.79 179.072,68.937 169.569,68.937C160.065,68.937 151.461,72.79 145.233,79.018C139.006,85.245 135.153,93.85 135.153,103.353C135.153,112.857 139.006,121.461 145.233,127.689C151.461,133.916 160.065,137.769 169.569,137.769C179.072,137.769 187.677,133.916 193.905,127.689C200.132,121.461 203.985,112.857 203.985,103.353C203.985,93.85 200.132,85.245 193.905,79.018Z" style="fill:#403c6e;fill-rule:nonzero;"/>
        <path d="M169.569,77.233C183.995,77.233 195.69,88.927 195.69,103.353C195.69,117.779 183.995,129.474 169.569,129.474C155.143,129.474 143.448,117.779 143.448,103.353C143.448,88.927 155.143,77.233 169.569,77.233Z" style="fill:#fefefe;"/>
        <path d="M169.569,75.541C177.249,75.541 184.204,78.655 189.235,83.687C194.267,88.719 197.382,95.674 197.382,103.353C197.382,111.033 194.267,117.988 189.235,123.02C184.204,128.052 177.249,131.166 169.569,131.166C161.889,131.166 154.934,128.052 149.903,123.02C144.87,117.988 141.756,111.033 141.756,103.353C141.756,95.674 144.87,88.719 149.903,83.687C154.934,78.655 161.889,75.541 169.569,75.541ZM186.842,86.08C182.422,81.659 176.314,78.924 169.569,78.924C162.824,78.924 156.716,81.659 152.296,86.08C147.874,90.5 145.14,96.608 145.14,103.353C145.14,110.099 147.874,116.207 152.296,120.627C156.716,125.048 162.824,127.782 169.569,127.782C176.314,127.782 182.422,125.048 186.842,120.627C191.263,116.207 193.998,110.099 193.998,103.353C193.998,96.608 191.263,90.5 186.842,86.08Z" style="fill:#403c6e;fill-rule:nonzero;"/>
        <path d="M169.569,88.87C177.568,88.87 184.052,95.354 184.052,103.353C184.052,111.352 177.568,117.836 169.569,117.836C161.57,117.836 155.087,111.352 155.087,103.353C155.087,95.354 161.57,88.87 169.569,88.87Z" style="fill:#e31e24;"/>
        <path d="M172.455,158.399C172.455,159.333 171.696,160.091 170.763,160.091C169.829,160.091 169.071,159.333 169.071,158.399L169.071,124.082C169.071,123.148 169.829,122.39 170.763,122.39C171.696,122.39 172.455,123.148 172.455,124.082L172.455,158.399Z" style="fill:#403c6e;fill-rule:nonzero;"/>
        <path d="M172.455,84.393C172.455,85.327 171.696,86.085 170.763,86.085C169.829,86.085 169.071,85.327 169.071,84.393L169.071,59.328C169.071,58.393 169.829,57.636 170.763,57.636C171.696,57.636 172.455,58.393 172.455,59.328L172.455,84.393Z" style="fill:#403c6e;fill-rule:nonzero;"/>
        <path d="M127.494,104.289C126.56,104.289 125.802,103.53 125.802,102.597C125.802,101.663 126.56,100.905 127.494,100.905L151.068,100.905C152.002,100.905 152.76,101.663 152.76,102.597C152.76,103.53 152.002,104.289 151.068,104.289L127.494,104.289Z" style="fill:#403c6e;fill-rule:nonzero;"/>
        <path d="M191.95,104.289C191.015,104.289 190.258,103.53 190.258,102.597C190.258,101.663 191.015,100.905 191.95,100.905L215.524,100.905C216.458,100.905 217.216,101.663 217.216,102.597C217.216,103.53 216.458,104.289 215.524,104.289L191.95,104.289Z" style="fill:#403c6e;fill-rule:nonzero;"/>
    </g>
    <path d="M576.813,200.859C539.675,200.859 509.569,170.753 509.569,133.615C509.569,96.477 539.675,66.371 576.813,66.371C613.951,66.371 644.057,96.477 644.057,133.615C644.057,170.753 613.951,200.859 576.813,200.859Z" style="fill:#fefefe;"/>
    <path d="M576.813,202.235C557.864,202.235 540.708,194.554 528.291,182.136C515.874,169.719 508.193,152.563 508.193,133.615C508.193,95.717 538.916,64.994 576.813,64.994C595.762,64.994 612.918,72.675 625.335,85.093C637.753,97.51 645.433,114.666 645.433,133.615C645.433,152.563 637.753,169.719 625.335,182.136C612.918,194.554 595.762,202.235 576.813,202.235ZM530.237,180.19C542.157,192.109 558.624,199.482 576.813,199.482C595.002,199.482 611.47,192.109 623.389,180.19C635.308,168.27 642.681,151.803 642.681,133.615C642.681,115.426 635.308,98.959 623.389,87.039C611.47,75.12 595.002,67.747 576.813,67.747C540.436,67.747 510.945,97.237 510.945,133.615C510.945,151.803 518.318,168.27 530.237,180.19Z" style="fill:#403c6e;fill-rule:nonzero;"/>
    <path d="M576.813,133.614L576.813,162.404C584.763,162.404 591.96,159.181 597.17,153.971L576.813,133.614Z" style="fill:#ee638d;"/>
    <path d="M576.813,177.954L576.813,133.614L545.461,164.967C553.484,172.991 564.569,177.954 576.813,177.954Z" style="fill:#388a4c;"/>
    <path d="M538.774,171.653L576.813,133.614L523.018,133.614C523.018,148.469 529.039,161.918 538.774,171.653Z" style="fill:#4669bd;"/>
    <path d="M515.663,133.614L576.813,133.614L533.573,90.375C522.507,101.44 515.663,116.728 515.663,133.614Z" style="fill:#ffdb6b;"/>
    <path d="M541.3,98.102L576.813,133.614L576.813,83.392C562.945,83.392 550.389,89.013 541.3,98.102Z" style="fill:#a954b9;"/>
    <path d="M576.813,83.392L576.813,133.614L612.326,98.102C603.237,89.013 590.682,83.392 576.813,83.392Z" style="fill:#97cc64;"/>
    <path d="M608.165,102.262L576.813,133.614L621.153,133.614C621.153,121.371 616.189,110.286 608.165,102.262Z" style="fill:#79b7e8;"/>
    <path d="M630.609,133.614L576.813,133.614L614.852,171.653C624.587,161.918 630.609,148.469 630.609,133.614Z" style="fill:#f79444;"/>
    <path d="M596.328,153.129C596.792,152.664 597.547,152.664 598.013,153.129C598.477,153.594 598.477,154.349 598.013,154.814C595.254,157.573 591.951,159.799 588.274,161.322C584.738,162.786 580.866,163.595 576.813,163.595C576.156,163.595 575.622,163.061 575.622,162.404C575.622,161.746 576.156,161.212 576.813,161.212C580.558,161.212 584.124,160.47 587.371,159.125C590.739,157.731 593.778,155.678 596.328,153.129Z" style="fill:#403c6e;fill-rule:nonzero;"/>
    <path d="M575.622,66.371C575.622,65.713 576.156,65.179 576.813,65.179C577.47,65.179 578.005,65.713 578.005,66.371L578.005,200.859C578.005,201.516 577.47,202.05 576.813,202.05C576.156,202.05 575.622,201.516 575.622,200.859L575.622,66.371Z" style="fill:#403c6e;fill-rule:nonzero;"/>
    <path d="M509.569,134.806C508.911,134.806 508.378,134.272 508.378,133.614C508.378,132.957 508.911,132.423 509.569,132.423L644.057,132.423C644.715,132.423 645.248,132.957 645.248,133.614C645.248,134.272 644.715,134.806 644.057,134.806L509.569,134.806Z" style="fill:#403c6e;fill-rule:nonzero;"/>
    <path d="M528.422,86.908C527.957,86.444 527.957,85.689 528.422,85.223C528.887,84.759 529.642,84.759 530.107,85.223L625.204,180.321C625.67,180.786 625.67,181.541 625.204,182.006C624.739,182.471 623.985,182.471 623.519,182.006L528.422,86.908Z" style="fill:#403c6e;fill-rule:nonzero;"/>
    <path d="M530.107,182.006C529.642,182.471 528.887,182.471 528.422,182.006C527.957,181.541 527.957,180.786 528.422,180.321L623.519,85.223C623.985,84.759 624.739,84.759 625.204,85.223C625.67,85.689 625.67,86.444 625.204,86.908L530.107,182.006Z" style="fill:#403c6e;fill-rule:nonzero;"/>
    <path d="M299.191,264.764C298.663,264.707 298.095,264.643 297.489,264.574C287.525,263.445 266.303,261.04 258.577,264.357C257.973,264.616 257.273,264.337 257.013,263.733C256.754,263.13 257.033,262.429 257.637,262.17C265.939,258.605 287.586,261.059 297.749,262.211C298.369,262.281 298.919,262.363 299.404,262.446C296.59,260.132 292.756,256.901 292.831,256.269C292.9,255.685 293.383,255.25 293.951,255.221L293.975,255.219C294.452,255.203 294.912,255.477 295.111,255.942C295.197,256.144 295.222,256.357 295.195,256.561C295.195,257.141 299.979,259.852 302.316,261.761C302.898,262.236 303.352,262.604 303.628,262.841C303.678,262.874 303.726,262.911 303.771,262.953C303.839,263.014 303.898,263.082 303.948,263.154C304.393,263.752 304.305,264.326 303.699,264.8C303.688,264.809 303.675,264.818 303.662,264.826C302.796,265.658 301.369,266.353 299.928,267.054C298.305,267.844 296.66,268.645 296.434,269.236C296.201,269.851 295.513,270.158 294.899,269.925C294.285,269.691 293.977,269.003 294.21,268.389C294.772,266.916 296.843,265.907 298.886,264.913C298.987,264.864 299.089,264.814 299.191,264.764Z" style="fill:#e31e24;fill-rule:nonzero;"/>
    <path d="M245.253,194.853C238.747,194.116 225.537,192.663 220.749,194.719C220.145,194.978 219.445,194.699 219.185,194.095C218.926,193.491 219.205,192.791 219.809,192.532C225.153,190.237 238.743,191.723 245.464,192.484C243.829,191.097 242.153,189.565 242.21,189.078C242.284,188.426 242.874,187.957 243.526,188.031C243.664,188.047 243.793,188.085 243.911,188.142L243.953,188.164C244.191,188.291 244.389,188.5 244.497,188.77C244.574,188.963 244.597,189.164 244.573,189.357C244.537,189.946 247.554,191.146 249.001,192.328L249.824,193.006C249.871,193.038 249.915,193.073 249.958,193.112C250.032,193.179 250.096,193.254 250.149,193.334C250.546,193.894 250.496,194.417 249.968,194.879L249.887,194.947C249.884,194.95 249.882,194.952 249.879,194.953C249.272,195.528 248.333,195.985 247.385,196.446C246.416,196.918 245.432,197.398 245.347,197.621C245.113,198.235 244.425,198.543 243.811,198.309C243.197,198.076 242.889,197.388 243.123,196.774C243.432,195.961 244.276,195.375 245.253,194.853Z" style="fill:#c93c18;fill-rule:nonzero;"/>
    <path d="M245.253,207.78C238.747,207.043 225.537,205.59 220.749,207.646C220.145,207.905 219.445,207.626 219.185,207.022C218.926,206.419 219.205,205.718 219.809,205.459C225.153,203.164 238.743,204.65 245.464,205.411C243.829,204.025 242.153,202.492 242.21,202.005C242.284,201.353 242.874,200.884 243.526,200.959C243.664,200.974 243.793,201.013 243.911,201.069L243.953,201.091C244.191,201.218 244.389,201.427 244.497,201.697C244.574,201.89 244.597,202.091 244.573,202.284C244.537,202.873 247.554,204.073 249.001,205.256L249.821,205.932C249.869,205.964 249.915,205.999 249.958,206.039C250.032,206.106 250.096,206.181 250.149,206.261C250.546,206.821 250.496,207.344 249.968,207.806L249.887,207.875C249.885,207.877 249.882,207.878 249.88,207.88C249.273,208.455 248.334,208.912 247.385,209.373C246.416,209.845 245.432,210.325 245.347,210.548C245.113,211.162 244.425,211.47 243.811,211.237C243.197,211.003 242.889,210.315 243.123,209.701C243.432,208.889 244.276,208.302 245.253,207.78Z" style="fill:#c93c18;fill-rule:nonzero;"/>
    <path d="M245.252,220.809C238.747,220.072 225.537,218.619 220.749,220.675C220.145,220.934 219.445,220.655 219.185,220.051C218.926,219.447 219.205,218.747 219.809,218.487C225.153,216.192 238.743,217.679 245.464,218.44C243.829,217.053 242.153,215.521 242.21,215.034C242.284,214.382 242.874,213.913 243.526,213.987C243.664,214.003 243.793,214.041 243.911,214.098L243.953,214.12C244.191,214.247 244.389,214.456 244.497,214.726C244.574,214.919 244.597,215.12 244.573,215.313C244.537,215.901 247.554,217.102 249.001,218.284L249.824,218.963C249.871,218.994 249.915,219.029 249.958,219.068C250.03,219.133 250.092,219.205 250.144,219.282C250.546,219.846 250.499,220.371 249.968,220.834L249.887,220.904C249.884,220.906 249.88,220.909 249.877,220.911C249.27,221.485 248.332,221.942 247.385,222.402C246.416,222.874 245.432,223.353 245.347,223.577C245.113,224.191 244.425,224.499 243.811,224.265C243.197,224.032 242.889,223.344 243.123,222.729C243.432,221.917 244.275,221.331 245.252,220.809Z" style="fill:#c93c18;fill-rule:nonzero;"/>
    <path d="M193.345,332.415C192.818,332.358 192.25,332.294 191.644,332.225C181.68,331.096 160.457,328.691 152.731,332.008C152.128,332.267 151.427,331.988 151.168,331.384C150.909,330.78 151.188,330.08 151.792,329.821C160.093,326.256 181.741,328.71 191.904,329.861C192.524,329.932 193.074,330.014 193.559,330.097C190.744,327.783 186.911,324.552 186.986,323.92C187.055,323.336 187.537,322.901 188.106,322.872L188.13,322.87C188.607,322.854 189.067,323.128 189.265,323.593C189.351,323.795 189.376,324.008 189.35,324.212C189.35,324.792 194.134,327.503 196.471,329.412C197.052,329.886 197.505,330.253 197.781,330.491C197.831,330.524 197.88,330.562 197.926,330.604C197.994,330.665 198.053,330.733 198.103,330.805C198.548,331.404 198.459,331.977 197.854,332.451C197.842,332.46 197.83,332.469 197.817,332.477C196.951,333.309 195.523,334.004 194.083,334.704C192.46,335.495 190.815,336.296 190.589,336.887C190.356,337.502 189.668,337.809 189.053,337.576C188.439,337.342 188.132,336.654 188.365,336.04C188.926,334.567 190.998,333.558 193.04,332.564C193.142,332.515 193.244,332.465 193.345,332.415Z" style="fill:#c93c18;fill-rule:nonzero;"/>
    <path d="M238.166,326.478C237.698,320.254 237.248,314.152 237.037,311.979L237.005,311.651C236.944,310.998 237.424,310.419 238.076,310.358C238.729,310.296 240.148,310.828 240.21,311.48L240.242,311.809C240.366,313.1 241.086,319.285 241.785,326.001C249.073,324.954 256.104,323.517 256.769,324.358C257.175,324.871 256.667,326.773 256.154,327.179C255.833,327.432 247.326,328.132 242.047,328.558C242.886,336.877 243.578,345.174 242.989,345.4L240.881,345.611C239.617,345.103 239.779,343.956 239.546,342.891C239.359,342.025 238.859,335.664 238.345,328.859C238.163,328.875 238.035,328.887 237.971,328.894C232.104,329.556 226.641,330.172 224.949,330.172C224.291,330.172 223.757,329.638 223.757,328.981C223.757,328.323 223.293,326.844 223.95,326.844C225.552,326.844 231.931,327.182 237.711,326.531C237.862,326.513 238.014,326.496 238.166,326.478Z" style="fill:#403c6e;fill-rule:nonzero;"/>
    <path d="M78.974,337.654C78.317,337.654 77.363,335.957 77.363,334.999C77.363,334.04 79.525,331.654 80.182,331.654C90.268,330.429 100.868,329.463 108,328.576L111.313,328.159C111.649,328.114 111.955,328.093 112.234,328.091C112.422,327.988 112.631,327.954 112.845,328.005C114.87,328.497 116.845,333.261 113.425,334.275C113.058,334.541 112.59,334.679 112.08,334.585C111.767,334.64 111.426,334.693 111.055,334.743L107.723,335.174C100.55,336.066 86.663,337.654 78.974,337.654Z" style="fill:#403c6e;fill-rule:nonzero;"/>
    <path d="M74.407,261.461L74.271,260.378C73.901,257.434 73.599,255.03 73.615,254.371C73.63,253.716 74.174,253.198 74.83,253.213C75.485,253.228 76.003,253.772 75.988,254.428C75.976,254.918 76.268,257.243 76.626,260.089C76.674,260.471 76.724,260.863 76.773,261.26C78.822,261.113 80.344,261.062 80.408,260.986C80.832,260.486 81.583,260.423 82.083,260.847C82.584,261.27 82.647,262.021 82.223,262.522C81.788,263.036 79.667,263.328 77.059,263.591C77.673,268.758 78.16,274.159 77.228,274.84C76.532,275.348 75.891,275.234 75.309,274.425C74.926,273.894 75.047,273.152 75.579,272.769C75.651,272.717 75.728,272.674 75.807,272.641C75.68,271.59 75.192,267.698 74.704,263.817C71.565,264.111 68.25,264.433 67.175,264.777C66.55,264.974 65.883,264.628 65.685,264.004C65.488,263.38 65.834,262.712 66.458,262.515C67.757,262.1 71.168,261.765 74.407,261.461Z" style="fill:#403c6e;fill-rule:nonzero;"/>
    <path d="M3.086,457.087C1.832,457.478 0.498,456.778 0.108,455.524C-0.282,454.269 0.418,452.935 1.672,452.545L264.892,370.172C265.315,370.041 265.746,370.033 266.149,370.129L686.422,470.151C687.701,470.454 688.494,471.738 688.19,473.017C687.887,474.296 686.604,475.088 685.324,474.785L265.68,374.911L3.086,457.087Z" style="fill:#403c6e;fill-rule:nonzero;"/>
    <path d="M607.422,453.861C596.121,423.363 604.837,385.176 621.571,350.588L656.874,357.733C656.874,357.733 637.71,382.551 633.718,411.34C629.726,440.128 635.636,458.064 635.636,458.064L607.422,453.861Z" style="fill:#403c6e;"/>
    <path d="M547.183,288.808C548.864,283.765 543.821,269.476 570.719,265.273C597.616,261.07 686.293,274.099 696.38,284.606C706.467,295.112 707.727,323.271 700.163,352.69C692.597,382.109 686.925,380.848 676.207,382.949C665.489,385.051 645.787,383.452 645.787,383.452L547.183,288.808Z" style="fill:#c93c18;"/>
    <path d="M530.372,359.414C526.17,324.111 541.299,285.867 548.864,275.36C556.429,264.853 671.583,282.084 681.67,297.214C691.757,312.343 682.93,356.472 678.938,370.341C674.946,384.211 660.21,382.766 651.411,383.79C642.611,384.814 556.009,366.139 545.502,366.139C534.995,366.139 530.372,359.414 530.372,359.414Z" style="fill:#f25d37;"/>
    <g>
        <path d="M135.486,218.336L131.163,218.336L126.863,218.314C125.85,218.314 125.14,218.249 124.735,218.119C123.996,217.858 123.627,217.308 123.627,216.468C123.627,215.006 124.764,214.275 127.037,214.275L128.079,214.296L128.97,214.34C128.97,213.645 128.908,212.617 128.785,211.256C128.662,209.895 128.601,208.874 128.601,208.193C128.601,206.354 128.767,203.56 129.1,199.81C129.419,196.117 129.571,193.316 129.556,191.404C127.616,192.91 126.378,193.663 125.842,193.663C125.263,193.663 124.76,193.446 124.333,193.012C123.906,192.577 123.692,192.078 123.692,191.513C123.692,190.833 124.315,190.007 125.56,189.037C126.342,188.487 127.45,187.604 128.883,186.387C130.157,185.099 131.373,184.454 132.532,184.454C133.502,184.454 133.987,185.012 133.987,186.127C133.987,186.46 133.944,186.956 133.857,187.614C133.77,188.273 133.726,188.769 133.726,189.102C133.726,189.58 133.752,190.304 133.802,191.274C133.853,192.244 133.878,192.968 133.878,193.446C133.878,195.097 133.705,197.558 133.357,200.831C133.01,204.103 132.836,206.557 132.836,208.193C132.836,209.033 132.894,210.054 133.01,211.256C133.125,212.457 133.191,213.442 133.205,214.209L135.486,214.166C136.094,214.166 136.597,214.365 136.995,214.763C137.393,215.161 137.592,215.657 137.592,216.251C137.592,216.859 137.393,217.359 136.995,217.75C136.597,218.141 136.094,218.336 135.486,218.336Z" style="fill:#403c6e;fill-rule:nonzero;"/>
        <path d="M153.491,219.161C149.089,219.161 145.875,217.149 143.847,213.124C142.313,210.025 141.545,205.992 141.545,201.026C141.545,196.827 142.544,193.164 144.542,190.036C146.903,186.373 150.11,184.541 154.164,184.541C157.972,184.541 160.94,186.163 163.069,189.406C164.908,192.215 165.827,195.64 165.827,199.679C165.827,206.166 164.799,211.035 162.743,214.285C160.687,217.536 157.603,219.161 153.491,219.161ZM154.142,188.733C151.449,188.733 149.313,190.101 147.735,192.838C146.418,195.126 145.759,197.739 145.759,200.678C145.759,205.442 146.403,209.019 147.692,211.408C148.98,213.797 150.913,214.991 153.491,214.991C156.56,214.991 158.761,213.239 160.093,209.735C161.02,207.303 161.483,204.219 161.483,200.483C161.483,196.559 160.872,193.62 159.648,191.665C158.425,189.71 156.589,188.733 154.142,188.733Z" style="fill:#403c6e;fill-rule:nonzero;"/>
        <path d="M180.64,219.161C176.238,219.161 173.023,217.149 170.996,213.124C169.461,210.025 168.694,205.992 168.694,201.026C168.694,196.827 169.693,193.164 171.691,190.036C174.051,186.373 177.259,184.541 181.313,184.541C185.121,184.541 188.089,186.163 190.218,189.406C192.056,192.215 192.976,195.64 192.976,199.679C192.976,206.166 191.948,211.035 189.892,214.285C187.836,217.536 184.752,219.161 180.64,219.161ZM181.291,188.733C178.598,188.733 176.462,190.101 174.884,192.838C173.566,195.126 172.908,197.739 172.908,200.678C172.908,205.442 173.552,209.019 174.841,211.408C176.129,213.797 178.062,214.991 180.64,214.991C183.709,214.991 185.91,213.239 187.242,209.735C188.169,207.303 188.632,204.219 188.632,200.483C188.632,196.559 188.02,193.62 186.797,191.665C185.573,189.71 183.738,188.733 181.291,188.733Z" style="fill:#403c6e;fill-rule:nonzero;"/>
    </g>
    <path d="M158.207,277.082C156.759,277.082 155.167,276.85 153.429,276.387L153.386,286.769C153.386,287.406 153.187,287.927 152.788,288.332C152.39,288.738 151.88,288.941 151.257,288.941C150.635,288.941 150.124,288.738 149.726,288.332C149.328,287.927 149.129,287.406 149.129,286.769L149.194,278.081L149.194,269.415C149.15,266.244 149.042,263.355 148.868,260.749L148.542,256.34C148.542,255.312 148.731,254.443 149.107,253.734C149.541,252.88 150.171,252.453 150.997,252.453C151.561,252.453 152.035,252.652 152.419,253.05C152.803,253.448 152.995,253.937 152.995,254.516C152.995,254.646 152.973,254.885 152.93,255.233C152.857,255.681 152.807,256.094 152.778,256.471C154.023,255.616 155.225,254.976 156.383,254.548C157.541,254.121 158.649,253.908 159.706,253.908C162.674,253.908 164.846,255.225 166.222,257.861C167.308,259.946 167.851,262.704 167.851,266.136C167.851,269.263 167.011,271.84 165.331,273.867C163.55,276.01 161.176,277.082 158.207,277.082ZM159.706,258.251C158.374,258.251 157.172,258.548 156.101,259.142C155.333,259.562 154.363,260.329 153.19,261.444C153.378,264.731 153.473,268.184 153.473,271.804C155.051,272.412 156.629,272.716 158.207,272.716C160.017,272.716 161.4,272.043 162.356,270.697C163.181,269.524 163.594,268.003 163.594,266.136C163.594,263.5 163.271,261.527 162.627,260.217C161.983,258.907 161.009,258.251 159.706,258.251Z" style="fill:#403c6e;fill-rule:nonzero;"/>
    <path d="M194.587,262.878C194.587,266.454 193.588,269.697 191.59,272.608C189.258,275.981 186.218,277.668 182.468,277.668C179.398,277.668 176.792,276.763 174.649,274.953C172.375,273.042 171.239,270.566 171.239,267.526C171.239,263.949 172.332,260.684 174.518,257.73C176.965,254.4 180.064,252.735 183.814,252.735C190.996,252.735 194.587,256.116 194.587,262.878ZM190.069,262.878C190.069,260.677 189.602,259.164 188.668,258.338C187.734,257.513 186.116,257.1 183.814,257.1C181.584,257.1 179.659,258.223 178.037,260.467C176.516,262.595 175.756,264.948 175.756,267.526C175.756,269.263 176.415,270.675 177.733,271.761C178.992,272.789 180.571,273.303 182.468,273.303C184.668,273.303 186.514,272.181 188.006,269.936C189.381,267.866 190.069,265.513 190.069,262.878Z" style="fill:#403c6e;fill-rule:nonzero;"/>
    <path d="M217.088,274.671C217.088,275.25 216.86,275.721 216.404,276.083C215.947,276.445 215.437,276.626 214.872,276.626C213.859,276.626 213.16,276.112 212.776,275.084C212.393,274.056 211.339,272.318 209.616,269.871C207.777,267.279 206.59,265.976 206.054,265.962L203.448,265.962C203.448,266.44 203.441,267.287 203.426,268.503C203.412,269.632 203.405,270.487 203.405,271.066C203.405,273.44 203.368,274.794 203.296,275.127C203.064,276.3 202.355,276.886 201.168,276.886C200.559,276.886 200.042,276.705 199.615,276.343C199.188,275.981 198.974,275.504 198.974,274.91C198.974,274.229 199.003,273.162 199.061,271.706C199.119,270.251 199.148,269.176 199.148,268.481C199.148,267.106 199.097,265.042 198.996,262.291C198.894,259.54 198.844,257.47 198.844,256.08C198.844,254.212 199.589,253.278 201.081,253.278C201.689,253.278 202.203,253.466 202.623,253.843C203.043,254.219 203.253,254.697 203.253,255.276C203.253,256.333 203.303,258.469 203.405,261.683L204.99,261.683C206.757,261.567 208.031,260.778 208.813,259.316C209.044,258.78 209.348,258.085 209.725,257.231C210.84,254.914 212.223,253.756 213.873,253.756C214.395,253.756 214.938,253.879 215.502,254.125C216.226,254.443 216.588,254.863 216.588,255.385C216.588,256.528 216.096,257.1 215.111,257.1C214.3,257.1 213.461,258.071 212.592,260.011C211.984,261.328 211.643,262.06 211.571,262.204C211.122,263.03 210.623,263.667 210.072,264.116C211.52,265.144 213.041,266.838 214.633,269.198C216.27,271.616 217.088,273.44 217.088,274.671Z" style="fill:#403c6e;fill-rule:nonzero;"/>
    <path d="M225.102,248.825C224.407,248.825 223.806,248.579 223.299,248.087C222.793,247.595 222.539,247.001 222.539,246.306C222.539,245.611 222.793,245.017 223.299,244.525C223.806,244.033 224.407,243.787 225.102,243.787C225.797,243.787 226.394,244.033 226.894,244.525C227.393,245.017 227.643,245.611 227.643,246.306C227.643,247.001 227.393,247.595 226.894,248.087C226.394,248.579 225.797,248.825 225.102,248.825ZM226.079,266.461C226.079,267.33 226.105,268.63 226.155,270.36C226.206,272.09 226.231,273.39 226.231,274.258C226.231,274.896 226.036,275.417 225.645,275.822C225.254,276.228 224.74,276.43 224.103,276.43C223.48,276.43 222.97,276.228 222.572,275.822C222.174,275.417 221.974,274.896 221.974,274.258C221.974,273.39 221.949,272.09 221.898,270.36C221.848,268.63 221.822,267.33 221.822,266.461C221.822,265.1 221.895,263.403 222.04,261.368C222.184,259.334 222.257,257.636 222.257,256.275C222.257,255.623 222.456,255.095 222.854,254.69C223.252,254.284 223.763,254.081 224.385,254.081C225.008,254.081 225.518,254.284 225.916,254.69C226.315,255.095 226.514,255.623 226.514,256.275C226.514,257.636 226.441,259.334 226.297,261.368C226.152,263.403 226.079,265.1 226.079,266.461Z" style="fill:#403c6e;fill-rule:nonzero;"/>
    <path d="M251.208,270.653C251.208,273.303 249.152,275.178 245.04,276.278C242.463,276.973 239.328,277.321 235.636,277.321C235.071,277.321 234.532,277.096 234.018,276.648C233.504,276.199 233.247,275.699 233.247,275.149L233.247,271.022C233.247,270.979 233.319,267.098 233.464,259.381L233.464,257.209C233.478,256.326 233.572,255.616 233.746,255.081C233.862,254.675 234.079,254.393 234.398,254.233C234.543,254.147 234.941,254.031 235.592,253.886C236.461,253.669 237.909,253.56 239.936,253.56C242.267,253.56 244.381,254.125 246.278,255.254C248.493,256.572 249.601,258.324 249.601,260.51C249.601,262.537 248.515,264.022 246.343,264.963C247.444,265.441 248.493,266.215 249.493,267.287C250.636,268.503 251.208,269.625 251.208,270.653ZM245.54,260.51C245.54,259.627 244.932,258.852 243.715,258.186C242.644,257.593 241.63,257.296 240.675,257.296L239.784,257.296C238.684,257.296 237.938,257.318 237.547,257.361C237.533,257.853 237.525,258.65 237.525,259.75C237.525,260.025 237.562,260.568 237.634,261.379C237.692,262.06 237.706,262.61 237.677,263.03C238.503,263.117 239.248,263.16 239.914,263.16C241.536,263.16 242.716,263.059 243.455,262.856C244.845,262.465 245.54,261.683 245.54,260.51ZM246.908,270.458C246.908,269.676 246.336,268.937 245.192,268.242C244.309,267.692 243.382,267.316 242.412,267.113C241.847,266.997 241.015,266.932 239.914,266.917C238.539,266.888 237.699,266.859 237.395,266.831C237.337,267.815 237.308,268.648 237.308,269.328L237.308,273.563C243.708,273.288 246.908,272.253 246.908,270.458Z" style="fill:#403c6e;fill-rule:nonzero;"/>
    <g>
        <path d="M101.089,278.867L96.767,278.867L92.466,278.846C91.453,278.846 90.743,278.781 90.338,278.65C89.599,278.39 89.23,277.839 89.23,277C89.23,275.537 90.367,274.806 92.64,274.806L93.683,274.828L94.573,274.871C94.573,274.176 94.512,273.148 94.388,271.787C94.265,270.426 94.204,269.405 94.204,268.725C94.204,266.886 94.37,264.091 94.703,260.341C95.022,256.649 95.174,253.847 95.159,251.936C93.219,253.442 91.981,254.195 91.446,254.195C90.866,254.195 90.363,253.977 89.936,253.543C89.509,253.109 89.295,252.609 89.295,252.044C89.295,251.364 89.918,250.539 91.163,249.568C91.945,249.018 93.053,248.135 94.486,246.919C95.76,245.63 96.977,244.986 98.135,244.986C99.105,244.986 99.59,245.543 99.59,246.658C99.59,246.991 99.547,247.487 99.46,248.146C99.373,248.805 99.33,249.301 99.33,249.634C99.33,250.111 99.355,250.835 99.406,251.806C99.456,252.776 99.482,253.5 99.482,253.977C99.482,255.628 99.308,258.09 98.96,261.362C98.613,264.634 98.439,267.089 98.439,268.725C98.439,269.564 98.497,270.585 98.613,271.787C98.729,272.989 98.794,273.973 98.808,274.741L101.089,274.697C101.697,274.697 102.2,274.897 102.598,275.295C102.996,275.693 103.196,276.189 103.196,276.782C103.196,277.391 102.996,277.89 102.598,278.281C102.2,278.672 101.697,278.867 101.089,278.867Z" style="fill:#403c6e;fill-rule:nonzero;"/>
        <path d="M119.094,279.693C114.692,279.693 111.478,277.68 109.451,273.655C107.916,270.556 107.148,266.524 107.148,261.557C107.148,257.358 108.147,253.695 110.146,250.568C112.506,246.904 115.713,245.073 119.767,245.073C123.575,245.073 126.544,246.694 128.672,249.938C130.511,252.747 131.43,256.171 131.43,260.211C131.43,266.698 130.402,271.566 128.346,274.817C126.29,278.067 123.206,279.693 119.094,279.693ZM119.745,249.264C117.052,249.264 114.917,250.633 113.338,253.369C112.021,255.657 111.362,258.271 111.362,261.21C111.362,265.974 112.006,269.55 113.295,271.939C114.584,274.328 116.517,275.523 119.094,275.523C122.164,275.523 124.364,273.771 125.696,270.267C126.623,267.834 127.086,264.75 127.086,261.014C127.086,257.091 126.475,254.151 125.251,252.196C124.028,250.242 122.192,249.264 119.745,249.264Z" style="fill:#403c6e;fill-rule:nonzero;"/>
    </g>
    <path d="M79.032,445.154L244.2,500L389.825,418.047L270.046,385.685L79.032,445.154Z" style="fill:#fffbdb;"/>
    <path d="M226.933,424.122C234.524,426.106 239.48,432.339 237.992,438.032C236.504,443.726 229.132,446.737 221.541,444.753C213.949,442.769 208.994,436.536 210.482,430.843C211.97,425.149 219.341,422.137 226.933,424.122Z" style="fill:#388a4c;"/>
    <path d="M274.213,397.014C281.805,398.998 286.76,405.231 285.272,410.925C283.784,416.618 276.413,419.63 268.821,417.646C261.23,415.662 256.274,409.428 257.762,403.735C259.25,398.041 266.622,395.03 274.213,397.014Z" style="fill:#388a4c;"/>
    <path d="M239.541,467.41C247.132,469.394 252.088,475.627 250.599,481.321C249.111,487.014 241.74,490.026 234.149,488.042C226.557,486.058 221.602,479.824 223.09,474.131C224.578,468.437 231.949,465.426 239.541,467.41Z" style="fill:#388a4c;"/>
    <path d="M191.839,456.903C199.431,458.887 204.386,465.12 202.898,470.814C201.41,476.507 194.039,479.519 186.447,477.535C178.856,475.551 173.901,469.318 175.389,463.624C176.877,457.931 184.248,454.919 191.839,456.903Z" style="fill:#388a4c;"/>
    <path d="M153.595,431.686C161.187,433.67 166.142,439.903 164.654,445.597C163.166,451.29 155.794,454.302 148.203,452.318C140.611,450.334 135.656,444.101 137.144,438.407C138.632,432.714 146.004,429.702 153.595,431.686Z" style="fill:#388a4c;"/>
    <path d="M274.213,437.359C281.805,439.344 286.76,445.577 285.272,451.27C283.784,456.964 276.413,459.975 268.821,457.991C261.23,456.007 256.274,449.774 257.762,444.08C259.25,438.387 266.622,435.375 274.213,437.359Z" style="fill:none;"/>
    <path d="M210.083,431.786C210.736,431.712 211.326,432.181 211.4,432.833C211.474,433.485 211.005,434.076 210.353,434.15L165.534,439.402C164.881,439.477 164.291,439.008 164.217,438.356C164.165,437.906 164.373,437.486 164.719,437.244L176.487,429.048C177.026,428.673 177.769,428.807 178.143,429.346C178.518,429.885 178.385,430.628 177.845,431.003L169.971,436.487L210.083,431.786Z" style="fill:#388a4c;fill-rule:nonzero;"/>
    <path d="M180.854,442.12C181.486,442.299 181.853,442.958 181.673,443.59C181.493,444.222 180.834,444.588 180.202,444.408C178.726,443.987 165.055,439.36 165.017,439.347C164.395,439.136 164.062,438.461 164.272,437.839C164.483,437.217 165.158,436.884 165.78,437.095C165.819,437.108 179.389,441.701 180.854,442.12Z" style="fill:#388a4c;fill-rule:nonzero;"/>
    <path d="M219.339,423.83C219.444,424.477 219.005,425.088 218.357,425.193C217.709,425.298 217.098,424.859 216.994,424.211L214.028,406.05C213.924,405.403 214.363,404.792 215.011,404.687C215.658,404.582 216.269,405.021 216.374,405.669L219.339,423.83Z" style="fill:#388a4c;fill-rule:nonzero;"/>
    <path d="M235.378,429.373C234.839,429.746 234.098,429.61 233.726,429.07C233.353,428.531 233.489,427.791 234.028,427.418L253.6,413.92L244.25,416.055C243.611,416.199 242.974,415.797 242.831,415.156C242.687,414.516 243.089,413.881 243.729,413.737L259.093,410.23C259.556,410.119 260.059,410.296 260.345,410.71C260.718,411.25 260.582,411.99 260.043,412.363L235.378,429.373Z" style="fill:#388a4c;fill-rule:nonzero;"/>
    <path d="M253.615,422.878C253.268,423.436 252.535,423.606 251.977,423.26C251.42,422.914 251.249,422.18 251.596,421.622L258.358,410.757C258.704,410.199 259.439,410.029 259.996,410.375C260.554,410.722 260.724,411.455 260.378,412.013L253.615,422.878Z" style="fill:#388a4c;fill-rule:nonzero;"/>
    <path d="M215.578,441.644C216.067,441.205 216.819,441.244 217.258,441.732C217.697,442.22 217.658,442.972 217.17,443.411L198.325,460.358C197.837,460.797 197.085,460.758 196.646,460.27C196.369,459.962 196.282,459.551 196.378,459.178L198.488,449.116C198.621,448.473 199.251,448.061 199.893,448.194C200.536,448.328 200.948,448.957 200.814,449.6L199.439,456.157L215.578,441.644Z" style="fill:#388a4c;fill-rule:nonzero;"/>
    <path d="M208.753,454.737C209.38,454.542 210.047,454.892 210.242,455.519C210.437,456.146 210.088,456.813 209.46,457.008L197.883,460.61C197.256,460.805 196.589,460.455 196.394,459.827C196.199,459.2 196.549,458.533 197.176,458.338L208.753,454.737Z" style="fill:#388a4c;fill-rule:nonzero;"/>
    <path d="M225.418,445.748C225.205,445.126 225.536,444.449 226.158,444.236C226.78,444.022 227.457,444.353 227.671,444.975L235.03,466.438C235.244,467.061 234.913,467.738 234.291,467.951C233.669,468.164 232.991,467.833 232.778,467.211L225.418,445.748Z" style="fill:#388a4c;fill-rule:nonzero;"/>
    <path d="M223.24,458.953C222.749,458.519 222.703,457.768 223.138,457.278C223.572,456.787 224.322,456.741 224.813,457.175L233.402,464.793L238.045,452.512C238.275,451.897 238.961,451.587 239.576,451.818C240.19,452.049 240.5,452.735 240.269,453.349L235.017,467.244C234.966,467.375 234.892,467.5 234.793,467.611C234.359,468.102 233.609,468.148 233.118,467.713L223.24,458.953Z" style="fill:#388a4c;fill-rule:nonzero;"/>
    <path d="M237.833,439.21C237.183,439.122 236.726,438.524 236.814,437.874C236.901,437.224 237.499,436.768 238.149,436.854L259.542,439.742C260.192,439.83 260.648,440.428 260.561,441.078C260.474,441.728 259.875,442.185 259.225,442.097L237.833,439.21Z" style="fill:#388a4c;fill-rule:nonzero;"/>
    <path d="M252.655,435.953C252.167,435.516 252.125,434.766 252.562,434.277C252.999,433.789 253.749,433.748 254.237,434.185L260.436,439.731C260.924,440.167 260.965,440.917 260.528,441.406C260.396,441.554 260.234,441.661 260.059,441.726L249.026,445.847C248.413,446.075 247.728,445.764 247.5,445.149C247.272,444.535 247.584,443.851 248.198,443.623L257.391,440.189L252.655,435.953Z" style="fill:#388a4c;fill-rule:nonzero;"/>
    <path d="M217.302,394.723C214.57,390.1 206.585,381.904 201.542,379.383C196.499,376.861 176.115,374.969 166.87,376.23C157.624,377.492 160.179,380.145 168.586,385.188C167.535,391.912 149.627,386.176 160.04,392.727C170.453,399.277 173.594,397.035 167.29,399.872C160.985,402.708 157.204,409.852 164.137,408.801C171.071,407.751 183.575,407.016 178.742,409.327C173.91,411.638 164.8,414.235 165.399,416.157C165.997,418.079 181.368,414.687 184.101,416.367C186.832,418.048 192.926,421.199 200.701,418.048C208.476,414.896 219.666,408.973 221.505,404.599C223.343,400.226 217.302,394.723 217.302,394.723Z" style="fill:#f6b096;"/>
    <path d="M132.827,438.011C133.038,432.127 197.339,345.13 201.121,343.869C204.904,342.608 209.948,343.869 211.419,347.232C212.889,350.594 139.78,436.912 137.144,438.407C134.508,439.902 132.827,438.011 132.827,438.011Z" style="fill:#edb400;"/>
    <path d="M197.259,347.86C199.294,345.459 200.66,344.023 201.121,343.869C204.904,342.608 209.948,343.869 211.419,347.232C211.687,347.846 209.459,351.237 205.634,356.366C204.309,355.916 202.953,355.305 201.857,354.482C199.788,352.93 198.404,350.871 197.259,347.86Z" style="fill:#c93c18;"/>
    <path d="M132.827,438.011C132.866,436.941 135.033,433.175 138.565,427.737C139.232,427.728 139.904,427.985 140.602,428.66C140.359,430.121 142.23,430.595 143.807,431.204C140.046,435.481 137.589,438.155 137.144,438.407C134.508,439.902 132.827,438.011 132.827,438.011Z" style="fill:#403c6e;"/>
    <path d="M191.554,379.304C189.768,378.988 178,381.3 173.797,383.611C169.594,385.922 170.75,392.332 174.218,392.752C177.685,393.172 181.782,388.865 185.46,391.596C189.137,394.329 185.564,398.846 192.184,400.947C198.803,403.049 206.369,400.317 206.369,400.317C206.369,400.317 199.539,382.561 191.554,379.304Z" style="fill:#f6b096;"/>
    <path d="M346.956,444.842C344.855,446.103 334.348,442.109 334.348,442.109C334.348,442.109 315.856,429.712 297.574,429.082C279.292,428.451 265.161,438.554 259.645,440.614C254.129,442.675 250.08,452.196 254.075,450.725C258.071,449.255 262.061,446.418 264.267,444.842C266.473,443.266 256.282,452.512 258.278,455.559C260.274,458.606 269.73,450.306 269.73,450.306C269.73,450.306 260.379,461.337 263.426,462.493C266.473,463.65 275.299,456.504 275.299,456.504C275.299,456.504 264.056,465.855 268.049,469.008C272.042,472.16 278.977,468.588 286.226,465.015C293.476,461.443 309.341,466.171 318.062,468.272C326.783,470.373 335.294,464.7 339.706,463.86C344.119,463.019 348.217,463.229 348.217,463.229L346.956,444.842Z" style="fill:#f6b096;"/>
    <path d="M280.764,432.864C280.764,432.864 268.996,428.452 263.847,428.242C258.699,428.031 257.439,432.024 259.96,433.705C262.482,435.385 271.714,437.928 271.714,437.928L280.764,432.864Z" style="fill:#f6b096;"/>
    <path d="M341.494,61.868C328.465,80.78 322.161,113.982 327.625,153.067C333.088,192.153 349.059,214.427 365.029,216.108C380.999,217.79 400.752,228.297 406.216,236.282C411.679,244.267 439.837,236.702 439.837,236.702C439.837,236.702 432.273,190.052 436.055,182.067C439.837,174.082 446.563,179.124 453.287,171.139C460.011,163.154 466.735,141.3 462.953,131.634C459.171,121.967 444.881,134.996 444.881,132.054C444.881,129.112 451.185,110.2 446.562,79.94C441.939,49.68 427.229,32.029 399.071,30.348C370.913,28.667 341.494,61.868 341.494,61.868Z" style="fill:#f6b096;"/>
    <path d="M328.885,18.37C294.209,44.946 290.85,67.542 286.438,86.665C282.025,105.787 291.481,127.851 291.481,127.851C291.481,127.851 296.944,105.997 308.292,95.07C319.64,84.143 341.914,88.765 364.609,81.621C387.303,74.476 405.796,50.941 405.796,50.941C405.796,50.941 407.056,81.621 420.085,93.389C433.114,105.156 438.577,103.055 438.577,106.417C438.577,109.78 444.898,132.213 444.898,132.213C444.898,132.213 452.938,127.039 457.047,128.044C461.156,129.049 462.953,131.634 462.953,131.634C462.953,131.634 474.511,113.772 481.655,99.693C488.8,85.614 484.177,69.854 480.605,60.188C477.032,50.521 457.489,43.587 453.707,37.283C449.925,30.978 442.78,24.587 436.686,22.783C430.592,20.98 415.883,24.884 415.883,24.884C406.069,-5.871 363.561,-8.206 328.885,18.37Z" style="fill:#c93c18;"/>
    <path d="M414.307,98.534C404.382,90.717 391.997,85.935 381.964,88.429C371.932,90.923 369.944,100.183 375.714,101.741C381.483,103.299 393.421,95.552 399.678,95.655C405.935,95.758 414.307,98.534 414.307,98.534Z" style="fill:#c93c18;"/>
    <path d="M315.543,96.33C324.578,89.816 335.505,86.244 343.911,89.186C352.317,92.128 353.368,100.743 348.324,101.794C343.28,102.845 333.614,94.964 328.255,94.649C322.897,94.334 315.543,96.33 315.543,96.33Z" style="fill:#c93c18;"/>
    <path d="M343.087,162.189C342.46,161.037 342.885,159.595 344.037,158.968C345.188,158.341 346.63,158.767 347.257,159.917C347.263,159.93 349.589,164.25 355.874,164.774C362.225,165.303 367.964,158.649 367.981,158.63C368.854,157.649 370.359,157.561 371.34,158.435C372.322,159.309 372.409,160.813 371.536,161.794C371.515,161.819 364.261,170.252 355.483,169.52C346.64,168.783 343.097,162.207 343.087,162.189Z" style="fill:#da734e;fill-rule:nonzero;"/>
    <ellipse cx="341.705" cy="123.229" rx="12.083" ry="16.391" style="fill:#fefefe;"/>
    <ellipse cx="383.627" cy="127.2" rx="13.029" ry="17.673" style="fill:#fefefe;"/>
    <ellipse cx="339.291" cy="130.8" rx="5.737" ry="7.782" style="fill:#1c1b17;"/>
    <ellipse cx="381.024" cy="135.363" rx="6.185" ry="8.391" style="fill:#1c1b17;"/>
    <path d="M306.825,360.055C315.883,352.232 366.773,282.135 373.918,259.86C381.063,237.586 389.201,235.445 397.393,234.392C405.586,233.34 418.312,245.904 422.667,239.728C427.023,233.552 437.624,217.908 441.827,214.336C446.029,210.764 466.317,212.959 495.317,236.704C524.316,260.449 556.887,321.81 568.654,350.388C580.422,378.967 598.684,451.717 598.684,451.717L497.565,427.651C497.565,427.651 465.687,409.647 451.818,393.256C437.95,376.865 402.647,310.462 402.647,310.462C402.647,310.462 348.879,388.525 340.46,390.26C332.041,391.995 220.775,405.836 220.775,405.836C220.775,405.836 215.429,396.622 212.428,390.369C209.427,384.115 205.186,381.754 205.186,381.754C221.289,378.538 297.767,367.877 306.825,360.055Z" style="fill:#82ced1;"/>
    <path d="M511.977,431.081L497.565,427.651C497.565,427.651 492.025,424.522 484.562,419.687L483.345,269.019C495.112,269.86 504.309,270.209 513.083,289.664C521.857,309.119 514.598,398.085 511.977,431.081Z" style="fill:#5db0b3;"/>
    <path d="M361.44,187.682C360.196,187.266 359.525,185.919 359.941,184.675C360.357,183.431 361.703,182.761 362.947,183.177C373.08,186.575 380.591,185.519 386.344,182.02C392.214,178.448 396.436,172.286 399.787,165.656C400.378,164.485 401.808,164.014 402.98,164.605C404.151,165.195 404.622,166.625 404.031,167.797C400.335,175.109 395.596,181.955 388.82,186.077C381.927,190.27 373.103,191.594 361.44,187.682Z" style="fill:#c93c18;fill-rule:nonzero;"/>
    <path d="M409.054,250.782C411.601,255.202 417.25,261.078 419.561,261.499C421.873,261.919 417.88,266.332 418.51,279.571C419.141,292.809 419.051,339.452 415.778,360.683C412.505,381.915 403.385,405.237 403.385,405.237L445.198,414.058C445.198,414.058 444.567,329.794 440.575,304.367C436.582,278.94 430.698,265.282 430.068,263.18C429.437,261.078 432.589,256.035 433.85,252.463C435.112,248.891 427.546,243.217 424.815,243.006C422.083,242.796 409.265,246.999 409.054,250.782Z" style="fill:#f25d37;"/>
    <path d="M391.823,227.246C395.185,227.036 402.539,225.146 409.264,229.768C415.988,234.391 417.039,234.391 417.039,234.391C417.039,234.391 433.733,208.413 436.208,209.424C438.683,210.435 442.676,217.58 445.408,225.986C448.14,234.391 442.046,261.499 442.046,261.499C442.046,261.499 423.554,244.478 419.351,246.789C415.148,249.101 408.213,262.549 402.33,261.078C396.446,259.608 391.823,227.246 391.823,227.246Z" style="fill:#5db0b3;"/>
    <path d="M463.588,271.903C467.37,294.178 471.05,398.723 458.124,406.391C445.198,414.058 345.071,439.593 340.448,439.803C335.824,440.013 334.348,442.109 334.348,442.109C334.348,442.109 338.557,451.381 338.557,454.722C338.557,458.064 338.23,464.255 338.23,464.255C338.23,464.255 337.086,467.33 338.977,467.751C340.868,468.171 385.627,465.86 406.22,463.548C426.814,461.236 495.318,452.411 500.572,445.897C505.826,439.383 511.079,335.364 509.399,314.351C507.718,293.337 508.769,286.403 498.051,277.997C487.334,269.592 474.306,262.236 463.588,271.903Z" style="fill:#82ced1;"/>
</svg>
